<?xml version="1.0" encoding="UTF-8" standalone="no"?><!DOCTYPE svg PUBLIC "-//W3C//DTD SVG 1.1//EN" "http://www.w3.org/Graphics/SVG/1.1/DTD/svg11.dtd"><!-- Generated by graphviz version 2.40.1 (20161225.0304)
 --><!-- Title: G Pages: 1 --><svg xmlns="http://www.w3.org/2000/svg" xmlns:xlink="http://www.w3.org/1999/xlink" width="292pt" height="173pt" viewBox="0.00 0.00 292.00 172.80">
<g id="graph0" class="graph" transform="scale(1 1) rotate(0) translate(4 168.8)">
<title>G</title>
<polygon fill="#ffffff" stroke="transparent" points="-4,4 -4,-168.8 288,-168.8 288,4 -4,4"/>
<g id="clust1" class="cluster">
<title>cluster_file3</title>
<g id="a_clust1"><a xlink:href="https://en.wikipedia.org/wiki/Portraits_of_Vincent_van_Gogh" xlink:title="file 3">
<polygon fill="none" stroke="#000000" points="8,-8 8,-156.8 150,-156.8 150,-8 8,-8"/>
<text text-anchor="middle" x="79" y="-140.2" font-family="Times,serif" font-size="14.00" fill="#000000">file 3</text>
</a>
</g>
</g>
<!-- f3 -->
<!-- f5 -->
<g id="node5" class="node">
<title>f5</title>
<polygon fill="none" stroke="#000000" points="284,-52 230,-52 230,-16 284,-16 284,-52"/>
<text text-anchor="middle" x="257" y="-29.8" font-family="Times,serif" font-size="14.00" fill="#000000">f5</text>
</g>
<!-- f3&#45;&gt;f5 -->
<g id="edge5" class="edge">
<title>f3-&gt;f5</title>
<path fill="none" stroke="#000000" d="M149.999,-85.1151C171.4596,-73.7828 198.7957,-60.009 220.5243,-49.6159"/>
<polygon fill="#000000" stroke="#000000" points="222.2819,-52.6564 229.824,-45.2154 219.2878,-46.329 222.2819,-52.6564"/>
</g>
<!-- f1 -->
<g id="node2" class="node">
<title>f1</title>
<g id="a_node2"><a xlink:href="http://google.com/" xlink:title="f1">
<polygon fill="none" stroke="#000000" points="70,-124 16,-124 16,-88 70,-88 70,-124"/>
<text text-anchor="middle" x="43" y="-101.8" font-family="Times,serif" font-size="14.00" fill="#000000">f1</text>
</a>
</g>
</g>
<!-- f4 -->
<g id="node3" class="node">
<title>f4</title>
<polygon fill="none" stroke="#000000" points="70,-52 16,-52 16,-16 70,-16 70,-52"/>
<text text-anchor="middle" x="43" y="-29.8" font-family="Times,serif" font-size="14.00" fill="#000000">f4</text>
</g>
<!-- f1&#45;&gt;f4 -->
<g id="edge1" class="edge">
<title>f1-&gt;f4</title>
<path fill="none" stroke="#000000" d="M37.0476,-87.8314C36.2972,-80.131 36.0763,-70.9743 36.3849,-62.4166"/>
<polygon fill="#000000" stroke="#000000" points="39.8792,-62.6161 37.024,-52.4133 32.8935,-62.1697 39.8792,-62.6161"/>
</g>
<!-- f2 -->
<g id="node4" class="node">
<title>f2</title>
<polygon fill="none" stroke="#000000" points="212,-52 158,-52 158,-16 212,-16 212,-52"/>
<text text-anchor="middle" x="185" y="-29.8" font-family="Times,serif" font-size="14.00" fill="#000000">f2</text>
</g>
<!-- f1&#45;&gt;f2 -->
<g id="edge3" class="edge">
<title>f1-&gt;f2</title>
<path fill="none" stroke="#000000" d="M70.388,-87.81C103.2748,-71.7125 112.4482,-69.2289 145,-52 146.272,-51.3268 147.5671,-50.6283 148.8775,-49.9146"/>
<polygon fill="#000000" stroke="#000000" points="150.5816,-52.9719 157.6626,-45.0908 147.2124,-46.836 150.5816,-52.9719"/>
</g>
<!-- f4&#45;&gt;f1 -->
<g id="edge2" class="edge">
<title>f4-&gt;f1</title>
<path fill="none" stroke="#000000" d="M48.976,-52.4133C49.7071,-60.0593 49.9203,-69.1084 49.6155,-77.5726"/>
<polygon fill="#000000" stroke="#000000" points="46.1048,-77.6264 48.9524,-87.8314 53.0902,-78.078 46.1048,-77.6264"/>
</g>
<!-- f2&#45;&gt;f1 -->
<g id="edge4" class="edge">
<title>f2-&gt;f1</title>
<path fill="none" stroke="#000000" d="M162.6181,-52.202C130.249,-69.3157 121.0735,-71.7953 88,-88 85.2645,-89.3403 82.4167,-90.7461 79.5298,-92.1562"/>
<polygon fill="#000000" stroke="#000000" points="77.7678,-89.1195 70.2652,-96.6003 80.7954,-95.4309 77.7678,-89.1195"/>
</g>
<!-- f5&#45;&gt;f3 -->
<g id="edge6" class="edge">
<title>f5-&gt;f3</title>
<path fill="none" stroke="#000000" d="M229.8319,-50.7176C209.8411,-61.4464 182.3759,-75.4166 159.2685,-86.6288"/>
<polygon fill="#000000" stroke="#000000" points="157.4899,-83.6005 149.9965,-91.0905 160.5252,-89.9082 157.4899,-83.6005"/>
</g>
</g>
</svg>